<svg width="36" height="22" viewBox="0 0 36 22" fill="none" xmlns="http://www.w3.org/2000/svg">
<path d="M31.0601 0.664217C28.6262 2.7945 28.3334 6.90163 28.3334 6.90163C5.3126 2.1777 0.689421 19.5069 0.689421 19.5069C0.689421 19.5069 15.8866 29.1243 29.5923 10.1096C29.5923 10.1096 32.6038 12.9315 35.8435 12.8538C35.8435 12.8538 33.0253 10.6968 31.7412 7.42459C30.4577 4.15268 31.0601 0.664217 31.0601 0.664217ZM6.47848 17.047C5.93887 17.257 5.31265 16.9455 5.0796 16.3516C4.84655 15.7578 5.09496 15.1064 5.63457 14.8965C6.17418 14.6865 6.80025 14.9976 7.0333 15.5915C7.26635 16.1853 7.0181 16.8371 6.47848 17.047ZM11.6784 19.7047C11.6519 19.8368 11.5659 19.9338 11.4567 19.9763C11.3867 20.0035 11.306 20.0079 11.2248 19.9826C11.0197 19.9204 10.889 19.6939 10.9337 19.4777C11.7377 15.5874 8.82138 13.7963 8.69751 13.7219C8.50826 13.6093 8.42963 13.3598 8.5219 13.1647C8.61329 12.9695 8.84024 12.9015 9.02989 13.0131C9.06583 13.0347 12.6124 15.1862 11.6784 19.7047Z" fill="#7A7871"/>
</svg>
